<svg width="34" height="40" viewBox="0 0 34 40" fill="none" xmlns="http://www.w3.org/2000/svg">
<path fill-rule="evenodd" clip-rule="evenodd" d="M30.4762 17.1313L16.8254 4.34908L3.1746 17.1313V36.8254H30.4762V17.1313ZM16.8254 0L33.6508 15.7548V40H0V15.7548L16.8254 0Z" fill="#333333"/>
<path d="M9.59906 22.2273V28.3073C9.59906 28.8051 9.70573 29.2013 9.91906 29.4959C10.1426 29.7803 10.4981 29.9225 10.9857 29.9225C11.4734 29.9225 11.834 29.7803 12.0676 29.4959C12.3013 29.2013 12.4181 28.8051 12.4181 28.3073V22.2273H15.7857V28.3073C15.7857 29.3333 15.5724 30.2121 15.1457 30.9435C14.7191 31.6648 14.1349 32.2082 13.3934 32.574C12.6518 32.9397 11.8238 33.1225 10.9095 33.1225C9.99525 33.1225 9.18256 32.9397 8.47145 32.574C7.77049 32.2082 7.22192 31.6648 6.82573 30.9435C6.42954 30.2222 6.23145 29.3435 6.23145 28.3073V22.2273H9.59906Z" fill="#333333"/>
<path d="M24.1172 33.0159L22.1362 30.2121L20.4905 33.0159H16.6353L20.1857 27.454L16.4829 22.2273H20.4905L22.3953 24.9244L23.98 22.2273H27.8353L24.3457 27.6825L28.1248 33.0159H24.1172Z" fill="#333333"/>
</svg>
